<svg width="305" height="305" xmlns="http://www.w3.org/2000/svg">

 <g>
  <title>background</title>
  <rect fill="none" id="canvas_background" height="307" width="307" y="-1" x="-1"/>
 </g>
 <g>
  <title>Layer 1</title>
  <path fill="#b59778" stroke="null" transform="rotate(0.18912217020988464 150.61488342285182,152.66551208495724) " id="svg_1" d="m99.366266,208.542506c-5.901253,3.531 -11.898836,6.262 -17.824621,8.117c-0.148982,0.047 -0.297366,0.069 -0.443357,0.069c-1.129034,0 -2.133617,-1.342 -2.349612,-3.265c-0.243517,-2.171 0.612084,-4.261 1.91164,-4.668c5.677481,-1.777 11.428555,-4.397 17.092872,-7.785c19.5795,-11.713 35.996268,-31.426 43.915064,-52.732c0.696447,-1.877 2.172508,-2.452 3.295559,-1.287s1.467685,3.632 0.770041,5.508c-8.469253,22.792 -25.803847,43.742 -46.367587,56.043zm201.451539,-19.735c2.739718,19.152 -2.134216,40.082 -13.724318,58.934c-11.260426,18.316 -27.618559,32.619 -46.061246,40.274c-9.336222,3.876 -18.702958,5.804 -27.596421,5.804c-10.209772,0 -19.793101,-2.546 -28.006272,-7.591c-13.196597,11.908 -30.151856,18.437 -48.095542,18.437c-24.851318,0 -47.448756,-12.888 -60.426966,-33.013c-1.771034,0.13 -3.560616,0.21 -5.34242,0.21c-18.984768,0 -36.870417,-7.302 -50.360192,-20.559c-13.888258,-13.65 -21.537211,-32.028 -21.537211,-51.748c0,-26.441 13.927149,-50.295 36.558691,-63.052c-3.645578,-10.785 -5.036677,-21.93 -4.021923,-32.788c1.223569,-13.094 5.91322,-24.916 13.562172,-34.188c14.934724,-18.103 38.907705,-24.828 64.129384,-17.99c0.444553,0.12 0.898082,0.25 1.353405,0.382c3.437362,-11.55 9.719148,-22.067 18.497135,-30.694c13.489177,-13.259 31.374228,-20.56 50.359594,-20.56s36.870417,7.301 50.360192,20.559c7.627413,7.496 13.368316,16.421 16.998337,26.209c30.880014,8.682 52.350212,37.127 52.350212,69.61c0,14.977 -4.380318,29.113 -12.683835,41.174c7.17568,7.992 11.956873,18.492 13.687222,30.59zm-5.790564,-71.764c0,-4.926 -0.605502,-9.75 -1.73334,-14.408c-3.039477,14.145 -11.044432,26.804 -22.945661,36.013c0.813718,2.734 1.46948,5.524 1.960702,8.357c3.804133,1.857 7.297737,4.181 10.447905,6.912c8.028887,-10.895 12.270394,-23.6 12.270394,-36.874zm-26.424906,42.453c0,-4.866 -0.598921,-9.678 -1.737528,-14.353c-2.816902,13.108 -9.890866,24.923 -20.523054,33.999c-0.348822,0.297 -0.72038,0.438 -1.086553,0.438c-0.870559,0 -1.710005,-0.797 -2.133019,-2.182c-0.601314,-1.968 -0.134623,-4.377 1.042876,-5.382c11.644549,-9.939 18.441491,-23.112 19.210933,-37.172c-4.421004,-10.081 -11.502149,-19.098 -20.705543,-26.011c-3.268037,5.776 -7.354578,11.121 -12.204579,15.887c-13.489775,13.258 -31.374826,20.559 -50.360192,20.559c-6.3482,0 -12.612635,-0.832 -18.676632,-2.454c0.756279,9.285 -0.170522,19.127 -2.707409,29.092c11.614035,9.976 26.703724,15.455 42.769875,15.455c6.001173,0 11.936531,-0.774 17.640936,-2.302c1.303744,-0.356 2.532698,1.136 2.741513,3.316c0.209413,2.182 -0.679096,4.233 -1.984037,4.582c-5.953906,1.595 -12.144148,2.403 -18.398412,2.403c-16.773368,0 -32.600191,-5.764 -44.874175,-16.267c-1.769239,5.352 -3.992007,10.709 -6.662917,16.005c-0.561226,1.113 -1.145189,2.213 -1.738725,3.307c12.729308,15.952 32.397359,25.386 53.275817,25.386c37.00504,0.002 67.110824,-28.847 67.110824,-64.306zm-163.763216,75.888c17.124583,-10.245 31.847501,-26.378 41.455959,-45.429c9.312289,-18.464 12.643748,-37.351 9.379899,-53.182c-2.147379,-10.416 -7.134994,-19.015 -14.424355,-24.864c-7.188244,-5.768 -16.219322,-8.636 -26.126941,-8.636c-11.097683,0 -23.295082,3.596 -35.24298,10.743c-17.124583,10.244 -31.847501,26.378 -41.455959,45.428c-4.535283,8.992 -7.647158,18.083 -9.273996,26.873c3.434969,12.872 12.399034,21.478 25.355704,24.291c1.310326,0.285 2.234734,2.291 2.06481,4.482c-0.15676,2.016 -1.185875,3.484 -2.370553,3.484c-0.102911,0 -0.20702,-0.011 -0.311726,-0.033c-11.839004,-2.571 -20.821019,-9.737 -26.025825,-20.548c-0.162145,5.082 0.223773,9.99 1.181088,14.633c2.147379,10.416 7.135592,19.014 14.424355,24.863c15.239868,12.232 38.755132,11.423 61.37052,-2.105zm145.300783,-178.993c1.228954,5.363 1.863176,10.916 1.863176,16.582c0,10.375 -2.119258,20.376 -6.147762,29.514c9.820863,7.721 17.364511,17.837 22.049973,29.235c13.196597,-10.018 21.095649,-24.215 21.902187,-39.419c-7.228332,-16.491 -21.485157,-29.761 -39.667574,-35.912zm-131.931271,-8.265c0.715594,14.139 7.509544,27.369 19.224097,37.367c1.1769,1.005 1.64419,3.414 1.042876,5.382c-0.423014,1.385 -1.26246,2.182 -2.133019,2.182c-0.366173,0 -0.737731,-0.141 -1.086553,-0.438c-10.676464,-9.112 -17.755215,-20.951 -20.551774,-34.096c-1.117666,4.646 -1.708809,9.484 -1.708809,14.451c0,7.642 1.412041,15.112 4.19065,22.239c9.780775,0.392 18.728686,3.542 26.136514,9.486c8.468056,6.796 14.30469,16.988 16.878673,29.471c0.013761,0.068 0.025728,0.137 0.039489,0.206c6.413417,1.921 13.086506,2.906 19.8649,2.906c37.00504,0 67.110824,-28.849 67.110824,-64.308c0,-4.974 -0.592937,-9.819 -1.713595,-14.471c-6.189046,28.989 -32.943628,50.348 -65.397229,50.348c-6.253067,0 -12.44331,-0.808 -18.398412,-2.402c-1.304941,-0.349 -2.19345,-2.4 -1.984037,-4.582c0.208814,-2.182 1.428794,-3.681 2.741513,-3.316c5.705602,1.526 11.640959,2.301 17.640936,2.301c32.933456,0 60.414999,-23.541 61.897642,-52.723c-10.161906,-23.161 -34.079842,-39.464 -61.897642,-39.464c-27.8178,0 -51.735137,16.303 -61.897044,39.461zm-73.841951,33.833c-0.523532,13.401 4.415619,27.475 14.013906,39.974c6.131607,-5.994 12.813073,-11.216 19.887636,-15.448c11.361543,-6.797 22.762575,-10.54 33.381001,-11.212c-2.283198,-7.155 -3.440353,-14.627 -3.440353,-22.301c0,-4.572 0.416432,-9.07 1.220578,-13.455c-0.099322,-0.027 -0.201635,-0.058 -0.299759,-0.085c-23.633732,-6.407 -46.836074,-0.057 -60.553212,16.57c-1.548458,1.878 -2.950327,3.871 -4.209796,5.957zm-1.075784,57.931c3.290175,-4.789 6.898058,-9.305 10.76322,-13.505c-7.876315,-10.861 -12.705973,-22.958 -14.094081,-35.159c-1.558031,4.336 -2.579368,8.941 -3.026314,13.723c-1.068604,11.434 1.132026,23.443 6.357175,34.941zm-33.621527,34.868c0.603707,11.656 5.371738,22.741 13.627389,31.88c-1.358192,-16.501 2.599112,-34.764 11.468642,-52.349c1.541877,-3.057 3.220171,-6.031 4.99659,-8.932c-0.294973,-0.635 -0.577381,-1.273 -0.855601,-1.912c-13.371307,7.199 -23.526632,18.288 -29.237021,31.313zm61.895249,89.104c0.323692,0 0.647983,-0.017 0.972274,-0.021c-1.478454,-3.082 -2.749889,-6.292 -3.78738,-9.618c-10.255843,-0.17 -19.638136,-3.33 -27.351707,-9.521c-7.887683,-6.33 -13.488579,-15.606 -16.300095,-26.935c-9.754449,-8.897 -16.262401,-20.197 -18.92314,-32.637c-1.125444,4.671 -1.720775,9.503 -1.720775,14.425c0,35.459 30.105785,64.307 67.110824,64.307zm65.769386,32.803c37.00504,0 67.110824,-28.849 67.110824,-64.308c0,-0.208 -0.008975,-0.417 -0.01077,-0.625c-0.978257,0.039 -1.957711,0.071 -2.941951,0.071c-1.179892,0 -2.355595,-0.037 -3.527708,-0.094c-3.755669,7.735 -9.056805,14.556 -15.779555,20.294c-0.348822,0.298 -0.72038,0.438 -1.086553,0.438c-0.870559,0 -1.710005,-0.797 -2.133019,-2.182c-0.601314,-1.968 -0.134024,-4.377 1.042876,-5.382c4.684864,-3.999 8.68046,-8.674 11.78336,-13.742c-18.459441,-2.523 -35.391364,-12.159 -46.931207,-26.933c-9.904628,16.117 -23.271149,29.657 -38.407507,38.712c-2.852801,1.707 -5.707995,3.211 -8.553018,4.532c11.092298,8.281 24.832172,12.787 39.435425,12.787c6.001173,0 11.936531,-0.774 17.640936,-2.302c1.303146,-0.357 2.532698,1.136 2.741513,3.316c0.209413,2.182 -0.679096,4.233 -1.984037,4.582c-5.953906,1.595 -12.144148,2.403 -18.398412,2.403c-17.629568,0 -34.137879,-6.336 -46.639824,-17.841c-5.619443,1.983 -11.153327,3.205 -16.497542,3.65c9.542643,25.364 34.69731,42.624 63.136169,42.624zm158.828253,-105.999c-0.683882,-4.781 -1.919418,-9.245 -3.667716,-13.34c-0.88432,13.913 -6.116051,28.296 -15.21414,41.443c-0.452332,0.654 -1.009968,0.975 -1.564015,0.975c-0.671318,0 -1.337849,-0.469 -1.811122,-1.384c-0.864576,-1.671 -0.755083,-4.197 0.244714,-5.642c9.97523,-14.416 14.749244,-30.025 13.495759,-44.046c-3.744899,-5.238 -8.573361,-9.555 -14.352556,-12.776c0.058636,1.196 0.09633,2.395 0.09633,3.599c0,19.721 -7.648953,38.099 -21.537211,51.749c-11.643353,11.442 -26.564315,18.435 -42.637646,20.139c0.004188,0.324 0.016753,0.65 0.016753,0.973c0,6.145 -0.743116,12.158 -2.185671,17.94c8.867735,0.306 18.401403,-1.551 27.769336,-5.441c5.831249,-2.421 11.491379,-5.567 16.821234,-9.353c1.217586,-0.863 2.621848,0.084 3.138799,2.117c0.516352,2.033 -0.050259,4.382 -1.266648,5.246c-5.562603,3.949 -11.463856,7.231 -17.539819,9.753c-9.082533,3.771 -18.333195,5.715 -27.051349,5.715c-1.458112,0 -2.897675,-0.067 -4.322879,-0.176c-3.107686,8.281 -7.732718,15.935 -13.733292,22.625c13.954672,6.86 31.487909,6.744 49.016959,-0.533c35.965754,-14.927 61.214956,-55.114 56.284182,-89.583z"/>
 </g>
</svg>