<svg viewBox="0 0 445.11 362.86" xmlns="http://www.w3.org/2000/svg"><path d="M436.61 314.76h-38.22A31.06 31.06 0 0 0 392 278c.22-.22.45-.42.66-.64a31.12 31.12 0 0 0-.67-44.69c.23-.21.46-.42.67-.64a31.11 31.11 0 0 0-.67-44.68l.67-.64A31.11 31.11 0 0 0 392 142l.67-.64a31.16 31.16 0 0 0-22-53.2H312.1V62.38a21.18 21.18 0 0 0-21.16-21.16h-23a45.23 45.23 0 0 0-90.11 0h-23a21.19 21.19 0 0 0-21.16 21.16v25.77H74.46A31.14 31.14 0 0 0 53.09 142c-.22.21-.45.41-.67.63a31.12 31.12 0 0 0 .67 44.69c-.22.21-.45.41-.67.63a31.12 31.12 0 0 0 .67 44.69l-.67.64a31.11 31.11 0 0 0 .68 44.69 31.07 31.07 0 0 0-6.38 36.82H8.5a8.51 8.51 0 0 0-8.5 8.5 39.64 39.64 0 0 0 39.59 39.6h365.93a39.64 39.64 0 0 0 39.59-39.6 8.51 8.51 0 0 0-8.5-8.53ZM384.81 210a14.17 14.17 0 0 1-14.17 14.16h-76.06V195.8h76.06a14.18 14.18 0 0 1 14.17 14.2Zm0-45.32a14.17 14.17 0 0 1-14.17 14.16h-76.06v-28.36h76.06a14.18 14.18 0 0 1 14.17 14.16Zm0-45.32a14.17 14.17 0 0 1-14.17 14.16h-76.06v-28.37h76.06a14.18 14.18 0 0 1 14.17 14.17ZM222.86 17a28.29 28.29 0 0 1 28 24.22h-4.51a24.36 24.36 0 0 0-23.45-17.89 3.5 3.5 0 0 0 0 7 17.32 17.32 0 0 1 16.06 10.89h-44A28.29 28.29 0 0 1 222.86 17Zm-72.24 45.38a4.17 4.17 0 0 1 4.16-4.16h136.16a4.16 4.16 0 0 1 4.16 4.16v25.77h-9a8.51 8.51 0 0 0-8.5 8.5v131a4.45 4.45 0 0 1-.34 1.73 4.57 4.57 0 0 1-1 1.44 4.5 4.5 0 0 1-.68.56 4.5 4.5 0 0 1-5.66-.56 4.71 4.71 0 0 1-1-1.44 4.46 4.46 0 0 1-.35-1.73v-131a8.5 8.5 0 0 0-8.5-8.5h-25.43a8.51 8.51 0 0 0-8.5 8.5v87.02a3.65 3.65 0 0 1-.2 1.09 4.43 4.43 0 0 1-1.1 1.8 4.5 4.5 0 0 1-.68.56 4.45 4.45 0 0 1-2.49.75 4.32 4.32 0 0 1-1-.13 4.45 4.45 0 0 1-2.14-1.18 5.73 5.73 0 0 1-.53-.56 4.49 4.49 0 0 1-.64-1.25 4.21 4.21 0 0 1-.2-1.1 2.64 2.64 0 0 0 0-.28V96.65a8.5 8.5 0 0 0-8.5-8.5h-42.8V67.32a3.5 3.5 0 0 0-7 0v20.83h-8.24Zm101 71.1h-8.48v-28.33h8.48Zm-8.48 17h8.48v28.32h-8.48ZM60.29 119.32a14.17 14.17 0 0 1 14.17-14.17h125.72v28.33H74.46a14.18 14.18 0 0 1-14.17-14.16Zm0 45.32a14.15 14.15 0 0 1 14.17-14.16h125.72v28.32H74.46a14.18 14.18 0 0 1-14.17-14.16Zm0 45.32a14.15 14.15 0 0 1 14.17-14.16h129.67l.16.2c.26.35.52.69.79 1l.3.36c.35.41.71.81 1.09 1.19a21.43 21.43 0 0 0 27.67 2.28 20.77 20.77 0 0 0 2.71-2.27c.39-.39.76-.79 1.11-1.21l.27-.32c.29-.35.58-.72.85-1.1l.12-.15h12.42v28.32H74.46A14.18 14.18 0 0 1 60.29 210Zm196.11 31.16.05.06c.46.56.95 1.1 1.46 1.62a21.5 21.5 0 0 0 28.8 1.44 19.54 19.54 0 0 0 1.58-1.44c.52-.52 1-1.06 1.46-1.62l.06-.06h80.83a14.16 14.16 0 1 1 0 28.32H74.46a14.16 14.16 0 1 1 0-28.32ZM60.3 300.6a14.17 14.17 0 0 1 14.16-14.16h296.19a14.16 14.16 0 1 1 0 28.32H74.46A14.17 14.17 0 0 1 60.3 300.6Zm345.22 45.26H39.59a22.62 22.62 0 0 1-20.93-14.1h407.79a22.64 22.64 0 0 1-20.93 14.1Z" data-name="Capa 2" fill="#b59778" class="fill-173156"></path></svg>