<svg viewBox="0 0 444.626 444.633" xml:space="preserve" xmlns="http://www.w3.org/2000/svg" enable-background="new 0 0 444.626 444.633"><path d="M16.102 70.888s61.5 35.143 74.972 52.129S304.275 337.57 304.275 337.57s34.557 6.848 40.414 24.42c5.857 17.571 17.572 62.086 30.457 65.015 12.886 2.929 14.152-117.946-111.088-241.315C133.246 56.83 34.845 45.616 16.102 70.888z" fill="#121d23" class="fill-fdbb03"></path><path d="m436.009 226.819-46.583-80.578c.11-1.17.283-2.323.338-3.511 1.067-22.812-8.096-45.676-25.142-62.722-17.043-17.05-39.889-26.227-62.729-25.142-1.186.055-2.334.227-3.504.336L217.81 8.62c-17.935-10.371-39.198-11.085-58.211-3.744C132.181 3.52 34.256 1.396 7.374 38.069c-5.68 7.749-11.003 20.77-4.122 38.798 7.629 19.998 27.373 25.983 44.794 31.261 11.154 3.377 22.634 6.864 31.44 13.649 1.876 13.656 8.585 26.275 19.871 35.177l66.034 52.097c1.781 4.4 4.386 8.583 8.01 12.207l49.972 49.972a36.543 36.543 0 0 0 12.283 8.103l52.018 65.938c8.897 11.277 21.508 17.952 35.153 19.833 6.802 8.813 10.291 20.314 13.673 31.481 5.278 17.417 11.264 37.161 31.258 44.794 6.078 2.32 11.586 3.253 16.514 3.253 9.695-.003 17.149-3.61 22.284-7.375 36.674-26.882 34.553-124.819 33.197-152.23 7.337-19.016 6.623-40.273-3.744-58.208zm-74.329-85.404c-.57 12.149-5.731 22.857-14.627 30.225l-96.506 81.416c-1.438 1.198-4.798.793-7.293-1.702l-.003-.003-49.972-49.972c-2.498-2.495-2.903-5.851-1.785-7.2l81.577-96.702c7.286-8.799 17.99-13.958 30.139-14.527a46.29 46.29 0 0 1 2.296-.055c14.174 0 28.358 6.116 39.237 16.991 11.463 11.465 17.637 26.6 16.937 41.529zM29.52 66.843c-2.529-6.62-1.153-9.857.529-12.149 10.694-14.596 53.852-20.969 94.2-22.064-.384.539-.805 1.036-1.177 1.589L90.255 78.086c-.154.206-.302.415-.443.628-2.698 4.05-4.825 8.281-6.512 12.588-9.251-4.609-18.757-7.55-27.1-10.08-14.86-4.502-24.096-7.605-26.68-14.379zm83.496 27.754 32.789-43.829c.154-.206.302-.415.443-.628 13.367-20.073 39.151-27.778 57.492-17.18l60.32 34.872c-4.614 3.315-8.865 7.156-12.561 11.617l-81.577 96.702c-.113.134-.182.295-.292.432l-52.859-41.698c-11.354-8.958-12.943-26.224-3.755-40.288zm196.732 233.261-41.705-52.862c.172-.137.366-.23.535-.371l96.506-81.412c4.504-3.734 8.37-8.014 11.706-12.657l34.879 60.333c10.598 18.33 2.89 44.121-17.184 57.495-.213.141-.422.288-.628.443l-43.826 32.785c-14.067 9.188-31.326 7.602-40.283-3.754zm80.187 86.725c-2.296 1.682-5.532 3.058-12.152.532-6.768-2.588-9.874-11.823-14.376-26.683-2.538-8.374-5.491-17.918-10.131-27.202 4.319-1.692 8.58-3.71 12.64-6.414.213-.144.422-.288.628-.443l43.864-32.816c.553-.371 1.048-.793 1.589-1.177-1.098 40.342-7.47 83.513-22.062 94.203z" fill="#b59778" class="fill-352517"></path></svg>