<svg width="364" height="310" xmlns="http://www.w3.org/2000/svg">

 <g>
  <title>background</title>
  <rect fill="none" id="canvas_background" height="312" width="366" y="-1" x="-1"/>
 </g>
 <g>
  <title>Layer 1</title>
  <path fill="#b59778" stroke="null" id="svg_1" d="m121.075898,209.877c-7.048182,3.531 -14.211415,6.262 -21.288896,8.117c-0.177937,0.047 -0.35516,0.069 -0.529525,0.069c-1.348466,0 -2.548293,-1.342 -2.806267,-3.265c-0.290846,-2.171 0.731044,-4.261 2.283174,-4.668c6.780918,-1.777 13.649733,-4.397 20.41493,-7.785c23.384842,-11.713 42.992265,-31.426 52.450106,-52.732c0.831804,-1.877 2.594743,-2.452 3.936063,-1.287s1.752934,3.632 0.919701,5.508c-10.115281,22.792 -30.818913,43.742 -55.379286,56.043zm240.604331,-19.735c3.272191,19.152 -2.549008,40.082 -16.391685,58.934c-13.448928,18.316 -32.98632,32.619 -55.013406,40.274c-11.150748,3.876 -22.337941,5.804 -32.959879,5.804c-12.194076,0 -23.639958,-2.546 -33.449386,-7.591c-15.761401,11.908 -36.011971,18.437 -57.443075,18.437c-29.681256,0 -56.670583,-12.888 -72.171152,-33.013c-2.115241,0.13 -4.252634,0.21 -6.380738,0.21c-22.674522,0 -44.036308,-7.302 -60.147867,-20.559c-16.587488,-13.65 -25.723041,-32.028 -25.723041,-51.748c0,-26.441 16.633938,-50.295 43.663997,-63.052c-4.354108,-10.785 -6.015573,-21.93 -4.803597,-32.788c1.461374,-13.094 7.062474,-24.916 16.198027,-34.188c17.837338,-18.103 46.469549,-24.828 76.593148,-17.99c0.530954,0.12 1.072627,0.25 1.616444,0.382c4.105425,-11.55 11.608097,-22.067 22.092116,-30.694c16.110844,-13.259 37.471916,-20.56 60.147152,-20.56s44.036308,7.301 60.147867,20.559c9.109827,7.496 15.966494,16.421 20.302022,26.209c36.88165,8.682 62.524654,37.127 62.524654,69.61c0,14.977 -5.231647,29.113 -15.148982,41.174c8.570297,7.992 14.280732,18.492 16.34738,30.59zm-6.915979,-71.764c0,-4.926 -0.723184,-9.75 -2.07022,-14.408c-3.63021,14.145 -13.190955,26.804 -27.405229,36.013c0.971867,2.734 1.755078,5.524 2.341771,8.357c4.54348,1.857 8.716078,4.181 12.47849,6.912c9.589329,-10.895 14.655187,-23.6 14.655187,-36.874zm-31.560676,42.453c0,-4.866 -0.715323,-9.678 -2.075223,-14.353c-3.364376,13.108 -11.81319,24.923 -24.51178,33.999c-0.416617,0.297 -0.860388,0.438 -1.297729,0.438c-1.039755,0 -2.042351,-0.797 -2.547579,-2.182c-0.718181,-1.968 -0.160787,-4.377 1.245562,-5.382c13.907707,-9.939 22.025657,-23.112 22.944644,-37.172c-5.280241,-10.081 -13.73763,-19.098 -24.729735,-26.011c-3.903191,5.776 -8.783965,11.121 -14.57658,15.887c-16.111559,13.258 -37.472631,20.559 -60.147867,20.559c-7.581994,0 -15.063943,-0.832 -22.306498,-2.454c0.903265,9.285 -0.203663,19.127 -3.233603,29.092c13.871262,9.976 31.893684,15.455 51.082346,15.455c7.167521,0 14.256436,-0.774 21.069511,-2.302c1.557132,-0.356 3.024937,1.136 3.274335,3.316c0.250113,2.182 -0.81108,4.233 -2.369641,4.582c-7.111067,1.595 -14.504405,2.403 -21.974206,2.403c-20.033329,0 -38.936148,-5.764 -53.595623,-16.267c-2.113097,5.352 -4.767867,10.709 -7.957878,16.005c-0.670303,1.113 -1.36776,2.213 -2.076652,3.307c15.203292,15.952 38.693896,25.386 63.630153,25.386c44.197095,0.002 80.154041,-28.847 80.154041,-64.306zm-195.591153,75.888c20.452804,-10.245 38.037171,-26.378 49.513066,-45.429c11.122164,-18.464 15.101103,-37.351 11.202914,-53.182c-2.564729,-10.416 -8.521704,-19.015 -17.227777,-24.864c-8.585304,-5.768 -19.371602,-8.636 -31.204801,-8.636c-13.254555,0 -27.82256,3.596 -42.092573,10.743c-20.452804,10.244 -38.037171,26.378 -49.513066,45.428c-5.416731,8.992 -9.133409,18.083 -11.076429,26.873c4.102566,12.872 14.808828,21.478 30.283671,24.291c1.564992,0.285 2.669062,2.291 2.466113,4.482c-0.187227,2.016 -1.416354,3.484 -2.831278,3.484c-0.122913,0 -0.247254,-0.011 -0.372311,-0.033c-14.139955,-2.571 -24.867655,-9.737 -31.084032,-20.548c-0.193659,5.082 0.267264,9.99 1.410637,14.633c2.564729,10.416 8.522419,19.014 17.227777,24.863c18.201788,12.232 46.287324,11.423 73.298089,-2.105zm173.540485,-178.993c1.467805,5.363 2.22529,10.916 2.22529,16.582c0,10.375 -2.531143,20.376 -7.3426,29.514c11.729581,7.721 20.739362,17.837 26.33546,29.235c15.761401,-10.018 25.19566,-24.215 26.158952,-39.419c-8.633183,-16.491 -25.66087,-29.761 -47.377102,-35.912zm-157.572562,-8.265c0.854672,14.139 8.969049,27.369 22.960365,37.367c1.405635,1.005 1.963744,3.414 1.245562,5.382c-0.505228,1.385 -1.507824,2.182 -2.547579,2.182c-0.43734,0 -0.881112,-0.141 -1.297729,-0.438c-12.751471,-9.112 -21.206002,-20.951 -24.546081,-34.096c-1.334888,4.646 -2.040921,9.484 -2.040921,14.451c0,7.642 1.686476,15.112 5.005117,22.239c11.681702,0.392 22.368669,3.542 31.216235,9.486c10.113851,6.796 17.084856,16.988 20.1591,29.471c0.016436,0.068 0.030728,0.137 0.047164,0.206c7.659886,1.921 15.629913,2.906 23.725711,2.906c44.197095,0 80.154041,-28.849 80.154041,-64.308c0,-4.974 -0.708177,-9.819 -2.046638,-14.471c-7.391908,28.989 -39.346334,50.348 -78.107403,50.348c-7.468371,0 -14.861709,-0.808 -21.974206,-2.402c-1.558561,-0.349 -2.619754,-2.4 -2.369641,-4.582c0.249398,-2.182 1.706485,-3.681 3.274335,-3.316c6.814505,1.526 13.903419,2.301 21.069511,2.301c39.334185,0 72.15686,-23.541 73.927659,-52.723c-12.136908,-23.161 -40.703375,-39.464 -73.927659,-39.464c-33.224284,0 -61.790037,16.303 -73.926944,39.461zm-88.193385,33.833c-0.625282,13.401 5.273809,27.475 16.737556,39.974c7.323306,-5.994 15.303337,-11.216 23.752866,-15.448c13.569697,-6.797 27.186559,-10.54 39.868712,-11.212c-2.726945,-7.155 -4.108998,-14.627 -4.108998,-22.301c0,-4.572 0.497367,-9.07 1.457801,-13.455c-0.118625,-0.027 -0.240823,-0.058 -0.358019,-0.085c-28.227028,-6.407 -55.938824,-0.057 -72.321934,16.57c-1.849406,1.878 -3.523734,3.871 -5.027984,5.957zm-1.284866,57.931c3.929631,-4.789 8.238719,-9.305 12.855089,-13.505c-9.407104,-10.861 -15.175422,-22.958 -16.833313,-35.159c-1.86084,4.336 -3.080676,8.941 -3.614489,13.723c-1.27629,11.434 1.352039,23.443 7.592713,34.941zm-40.155985,34.868c0.72104,11.656 6.415753,22.741 16.275919,31.88c-1.622161,-16.501 3.104259,-34.764 13.697612,-52.349c1.841546,-3.057 3.846022,-6.031 5.967694,-8.932c-0.352302,-0.635 -0.689597,-1.273 -1.02189,-1.912c-15.970067,7.199 -28.099113,18.288 -34.919335,31.313zm73.924801,89.104c0.386603,0 0.773921,-0.017 1.161239,-0.021c-1.765797,-3.082 -3.28434,-6.292 -4.523471,-9.618c-12.249101,-0.17 -23.454874,-3.33 -32.667604,-9.521c-9.420681,-6.33 -16.11013,-15.606 -19.468074,-26.935c-11.650259,-8.897 -19.423054,-20.197 -22.600917,-32.637c-1.344178,4.671 -2.055214,9.503 -2.055214,14.425c0,35.459 35.956946,64.307 80.154041,64.307zm78.551889,32.803c44.197095,0 80.154041,-28.849 80.154041,-64.308c0,-0.208 -0.010719,-0.417 -0.012863,-0.625c-1.168385,0.039 -2.338198,0.071 -3.513729,0.071c-1.409208,0 -2.813413,-0.037 -4.213331,-0.094c-4.485596,7.735 -10.817026,14.556 -18.846365,20.294c-0.416617,0.298 -0.860388,0.438 -1.297729,0.438c-1.039755,0 -2.042351,-0.797 -2.547579,-2.182c-0.718181,-1.968 -0.160072,-4.377 1.245562,-5.382c5.595383,-3.999 10.367537,-8.674 14.073496,-13.742c-22.047096,-2.523 -42.269796,-12.159 -56.052447,-26.933c-11.829626,16.117 -27.793976,29.657 -45.872137,38.712c-3.407252,1.707 -6.817363,3.211 -10.215326,4.532c13.248123,8.281 29.658389,12.787 47.099834,12.787c7.167521,0 14.256436,-0.774 21.069511,-2.302c1.556417,-0.357 3.024937,1.136 3.274335,3.316c0.250113,2.182 -0.81108,4.233 -2.369641,4.582c-7.111067,1.595 -14.504405,2.403 -21.974206,2.403c-21.055934,0 -40.772692,-6.336 -55.704432,-17.841c-6.711601,1.983 -13.321014,3.205 -19.703895,3.65c11.397288,25.364 41.440851,42.624 75.406898,42.624zm189.697064,-105.999c-0.816797,-4.781 -2.292463,-9.245 -4.380549,-13.34c-1.056191,13.913 -7.304726,28.296 -18.17106,41.443c-0.540244,0.654 -1.206259,0.975 -1.867986,0.975c-0.801791,0 -1.597864,-0.469 -2.163119,-1.384c-1.032609,-1.671 -0.901836,-4.197 0.292275,-5.642c11.91395,-14.416 17.615809,-30.025 16.118705,-44.046c-4.472733,-5.238 -10.239622,-9.555 -17.142024,-12.776c0.070032,1.196 0.115052,2.395 0.115052,3.599c0,19.721 -9.135553,38.099 -25.723041,51.749c-13.906278,11.442 -31.72718,18.435 -50.924417,20.139c0.005002,0.324 0.020009,0.65 0.020009,0.973c0,6.145 -0.887544,12.158 -2.610464,17.94c10.59121,0.306 21.977779,-1.551 33.166401,-5.441c6.964573,-2.421 13.724767,-5.567 20.090498,-9.353c1.454228,-0.863 3.131414,0.084 3.748835,2.117c0.616707,2.033 -0.060027,4.382 -1.512826,5.246c-6.643713,3.949 -13.691895,7.231 -20.948743,9.753c-10.847754,3.771 -21.896313,5.715 -32.308871,5.715c-1.7415,0 -3.460848,-0.067 -5.163045,-0.176c-3.711676,8.281 -9.235598,15.935 -16.402405,22.625c16.66681,6.86 37.607692,6.744 58.543571,-0.533c42.95582,-14.927 73.112291,-55.114 67.223204,-89.583z"/>
 </g>
</svg>