<svg xmlns="http://www.w3.org/2000/svg" viewBox="0 0 504.57 304" xml:space="preserve" enable-background="new 0 0 504.57 304"><path d="M166.631 207.877c-9.863 3.531-19.887 6.262-29.791 8.117a4.002 4.002 0 0 1-4.668-3.196 4 4 0 0 1 3.195-4.668c9.489-1.777 19.101-4.397 28.568-7.785 32.724-11.713 60.162-31.426 73.397-52.732a4 4 0 1 1 6.795 4.221c-14.155 22.792-43.127 43.742-77.496 56.043zm336.694-19.735c4.579 19.152-3.567 40.082-22.938 58.934-18.82 18.316-46.16 32.619-76.984 40.274-15.604 3.876-31.259 5.804-46.123 5.804-17.064 0-33.081-2.546-46.808-7.591C288.416 297.471 260.078 304 230.088 304c-41.535 0-79.303-12.888-100.994-33.013-2.96.13-5.951.21-8.929.21-31.73 0-61.623-7.302-84.169-20.559C12.784 236.988 0 218.61 0 198.89c0-26.441 23.277-50.295 61.102-63.052-6.093-10.785-8.418-21.93-6.722-32.788 2.045-13.094 9.883-24.916 22.667-34.188 24.961-18.103 65.028-24.828 107.182-17.99.743.12 1.501.25 2.262.382 5.745-11.55 16.244-22.067 30.915-30.694C239.951 7.301 269.843 0 301.574 0s61.623 7.301 84.169 20.559c12.748 7.496 22.343 16.421 28.41 26.209 51.611 8.682 87.495 37.127 87.495 69.61 0 14.977-7.321 29.113-21.199 41.174 11.993 7.992 19.984 18.492 22.876 30.59zm-9.678-71.764c0-4.926-1.012-9.75-2.897-14.408-5.08 14.145-18.459 26.804-38.35 36.013a50.027 50.027 0 0 1 3.277 8.357c6.358 1.857 12.197 4.181 17.462 6.912 13.419-10.895 20.508-23.6 20.508-36.874zm-44.165 42.453c0-4.866-1.001-9.678-2.904-14.353-4.708 13.108-16.531 24.923-34.301 33.999a3.999 3.999 0 0 1-5.381-1.744 4 4 0 0 1 1.743-5.382c19.462-9.939 30.822-23.112 32.108-37.172-7.389-10.081-19.224-19.098-34.606-26.011-5.462 5.776-12.292 11.121-20.398 15.887-22.546 13.258-52.438 20.559-84.169 20.559-10.61 0-21.08-.832-31.215-2.454 1.264 9.285-.285 19.127-4.525 29.092 19.411 9.976 44.631 15.455 71.483 15.455 10.03 0 19.95-.774 29.484-2.302a3.996 3.996 0 0 1 4.582 3.316 3.998 3.998 0 0 1-3.316 4.582c-9.951 1.595-20.297 2.403-30.75 2.403-28.034 0-54.486-5.764-75-16.267-2.957 5.352-6.672 10.709-11.136 16.005a121.66 121.66 0 0 1-2.906 3.307c21.275 15.952 54.147 25.386 89.042 25.386 61.848.002 112.165-28.847 112.165-64.306zm-273.704 75.888c28.621-10.245 53.228-26.378 69.287-45.429 15.564-18.464 21.132-37.351 15.677-53.182-3.589-10.416-11.925-19.015-24.108-24.864-12.014-5.768-27.108-8.636-43.667-8.636-18.548 0-38.934 3.596-58.903 10.743-28.621 10.244-53.228 26.378-69.287 45.428-7.58 8.992-12.781 18.083-15.5 26.873C55.018 198.524 70 207.13 91.655 209.943a4 4 0 0 1-1.032 7.933c-19.787-2.571-34.799-9.737-43.498-20.548-.271 5.082.374 9.99 1.974 14.633 3.589 10.416 11.926 19.014 24.108 24.863 25.471 12.232 64.773 11.423 102.571-2.105zM418.625 55.726c2.054 5.363 3.114 10.916 3.114 16.582 0 10.375-3.542 20.376-10.275 29.514 16.414 7.721 29.022 17.837 36.853 29.235 22.056-10.018 35.258-24.215 36.606-39.419-12.081-16.491-35.909-29.761-66.298-35.912zm-220.502-8.265c1.196 14.139 12.551 27.369 32.13 37.367a4 4 0 0 1-3.638 7.126c-17.844-9.112-29.675-20.951-34.349-34.096-1.868 4.646-2.856 9.484-2.856 14.451 0 7.642 2.36 15.112 7.004 22.239 16.347.392 31.302 3.542 43.683 9.486 14.153 6.796 23.908 16.988 28.21 29.471.023.068.043.137.066.206 10.719 1.921 21.872 2.906 33.201 2.906 61.848 0 112.165-28.849 112.165-64.308 0-4.974-.991-9.819-2.864-14.471-10.344 28.989-55.06 50.348-109.301 50.348-10.451 0-20.797-.808-30.75-2.402a3.998 3.998 0 0 1-3.316-4.582c.349-2.182 2.388-3.681 4.582-3.316 9.536 1.526 19.456 2.301 29.484 2.301 55.043 0 100.974-23.541 103.452-52.723C388.042 24.303 348.067 8 301.574 8c-46.493 0-86.467 16.303-103.451 39.461zM74.708 81.294c-.875 13.401 7.38 27.475 23.422 39.974 10.248-5.994 21.415-11.216 33.239-15.448 18.989-6.797 38.044-10.54 55.791-11.212-3.816-7.155-5.75-14.627-5.75-22.301 0-4.572.696-9.07 2.04-13.455-.166-.027-.337-.058-.501-.085-39.5-6.407-78.279-.057-101.205 16.57a60.236 60.236 0 0 0-7.036 5.957zm-1.798 57.931c5.499-4.789 11.529-9.305 17.989-13.505-13.164-10.861-21.236-22.958-23.556-35.159-2.604 4.336-4.311 8.941-5.058 13.723-1.786 11.434 1.892 23.443 10.625 34.941zm-56.193 34.868c1.009 11.656 8.978 22.741 22.776 31.88-2.27-16.501 4.344-34.764 19.168-52.349 2.577-3.057 5.382-6.031 8.351-8.932a76.569 76.569 0 0 1-1.43-1.912c-22.348 7.199-39.321 18.288-48.865 31.313zm103.448 89.104c.541 0 1.083-.017 1.625-.021-2.471-3.082-4.596-6.292-6.33-9.618-17.141-.17-32.822-3.33-45.714-9.521-13.183-6.33-22.544-15.606-27.243-26.935-16.303-8.897-27.18-20.197-31.627-32.637C8.995 189.136 8 193.968 8 198.89c0 35.459 50.317 64.307 112.165 64.307zM230.088 296c61.848 0 112.165-28.849 112.165-64.308 0-.208-.015-.417-.018-.625a205.95 205.95 0 0 1-4.917.071c-1.972 0-3.937-.037-5.896-.094-6.277 7.735-15.137 14.556-26.373 20.294a3.999 3.999 0 0 1-5.381-1.744 4 4 0 0 1 1.743-5.382c7.83-3.999 14.508-8.674 19.694-13.742-30.852-2.523-59.151-12.159-78.438-26.933-16.554 16.117-38.894 29.657-64.192 38.712a205.987 205.987 0 0 1-14.295 4.532c18.539 8.281 41.503 12.787 65.91 12.787 10.03 0 19.95-.774 29.484-2.302 2.178-.357 4.233 1.136 4.582 3.316a3.998 3.998 0 0 1-3.316 4.582c-9.951 1.595-20.297 2.403-30.75 2.403-29.465 0-57.056-6.336-77.951-17.841-9.392 1.983-18.641 3.205-27.573 3.65C140.515 278.74 182.557 296 230.088 296zm265.456-105.999c-1.143-4.781-3.208-9.245-6.13-13.34-1.478 13.913-10.222 28.296-25.428 41.443a3.985 3.985 0 0 1-2.614.975 4 4 0 0 1-2.618-7.026c16.672-14.416 24.651-30.025 22.556-44.046-6.259-5.238-14.329-9.555-23.988-12.776.098 1.196.161 2.395.161 3.599 0 19.721-12.784 38.099-35.996 51.749-19.46 11.442-44.398 18.435-71.262 20.139.007.324.028.65.028.973 0 6.145-1.242 12.158-3.653 17.94 14.821.306 30.755-1.551 46.412-5.441 9.746-2.421 19.206-5.567 28.114-9.353a4 4 0 0 1 3.129 7.363c-9.297 3.949-19.16 7.231-29.315 9.753-15.18 3.771-30.641 5.715-45.212 5.715-2.437 0-4.843-.067-7.225-.176-5.194 8.281-12.924 15.935-22.953 22.625 23.323 6.86 52.627 6.744 81.924-.533 60.111-14.927 102.311-55.114 94.07-89.583z" fill="#b59778" class="fill-000000"></path></svg>